HIERARCHY
ROOT Hips
{
	OFFSET 55.384701 -12.229009 55.322098
	CHANNELS 6 Xposition Yposition Zposition Xrotation Yrotation Zrotation
	JOINT spine
	{
		OFFSET 0.000000 -0.467661 8.132488
		CHANNELS 3 Xrotation Yrotation Zrotation
		JOINT spine1
		{
			OFFSET 0.000000 -0.000002 10.349804
			CHANNELS 3 Xrotation Yrotation Zrotation
			JOINT spine2
			{
				OFFSET 0.000000 -0.000001 9.916992
				CHANNELS 3 Xrotation Yrotation Zrotation
				JOINT Neck
				{
					OFFSET 0.000000 -1.213904 25.460999
					CHANNELS 3 Xrotation Yrotation Zrotation
					JOINT Head
					{
						OFFSET 0.000000 -0.000001 7.692451
						CHANNELS 3 Xrotation Yrotation Zrotation
						End Site
						{
							OFFSET 0.000000 6.140627 18.619995
						}
					}
				}
				JOINT RightShoulder
				{
					OFFSET -4.175751 0.581443 10.709602
					CHANNELS 3 Xrotation Yrotation Zrotation
					JOINT RightArm
					{
						OFFSET 0.000000 -0.000003 14.046600
						CHANNELS 3 Xrotation Yrotation Zrotation
						JOINT RightArmRoll
						{
							OFFSET 0.000000 -0.000001 7.090988
							CHANNELS 3 Xrotation Yrotation Zrotation
							JOINT RightForeArm
							{
								OFFSET 0.000000 -0.000003 20.653503
								CHANNELS 3 Xrotation Yrotation Zrotation
								JOINT RightForeArmRoll
								{
									OFFSET 0.000000 -0.000002 7.957184
									CHANNELS 3 Xrotation Yrotation Zrotation
									JOINT RightHand
									{
										OFFSET 0.000000 -0.000002 15.968292
										CHANNELS 3 Xrotation Yrotation Zrotation
										End Site
										{
											OFFSET 0.000000 0.000000 0.100006
										}
									}
								}
							}
						}
					}
				}
				JOINT LeftShoulder
				{
					OFFSET 4.175751 0.581443 10.709602
					CHANNELS 3 Xrotation Yrotation Zrotation
					JOINT LeftArm
					{
						OFFSET 0.000000 -0.000003 14.046600
						CHANNELS 3 Xrotation Yrotation Zrotation
						JOINT LeftArmRoll
						{
							OFFSET 0.000000 -0.000001 7.090988
							CHANNELS 3 Xrotation Yrotation Zrotation
							JOINT LeftForeArm
							{
								OFFSET 0.000000 -0.000003 20.653503
								CHANNELS 3 Xrotation Yrotation Zrotation
								JOINT LeftForeArmRoll
								{
									OFFSET 0.000000 -0.000002 7.957184
									CHANNELS 3 Xrotation Yrotation Zrotation
									JOINT LeftHand
									{
										OFFSET 0.000000 -0.000002 15.968292
										CHANNELS 3 Xrotation Yrotation Zrotation
										End Site
										{
											OFFSET 0.000000 0.000000 0.100006
										}
									}
								}
							}
						}
					}
				}
			}
		}
	}
	JOINT RightUpLeg
	{
		OFFSET -7.208340 1.108840 -1.321815
		CHANNELS 3 Xrotation Yrotation Zrotation
		JOINT RightUpLegRoll
		{
			OFFSET 0.000000 -0.000003 18.723801
			CHANNELS 3 Xrotation Yrotation Zrotation
			JOINT RightLeg
			{
				OFFSET 0.000000 0.000004 -23.186600
				CHANNELS 3 Xrotation Yrotation Zrotation
				JOINT RightLegRoll
				{
					OFFSET 0.000000 -0.000004 23.262398
					CHANNELS 3 Xrotation Yrotation Zrotation
					JOINT RightFoot
					{
						OFFSET 0.000000 -0.000004 19.362099
						CHANNELS 3 Xrotation Yrotation Zrotation
						JOINT RightToeBase
						{
							OFFSET 0.000000 -0.000003 16.185699
							CHANNELS 3 Xrotation Yrotation Zrotation
							End Site
							{
								OFFSET 0.006859 0.903520 7.838631
							}
						}
					}
				}
			}
		}
	}
	JOINT LeftUpLeg
	{
		OFFSET 7.208340 1.108840 -1.321815
		CHANNELS 3 Xrotation Yrotation Zrotation
		JOINT LeftUpLegRoll
		{
			OFFSET 0.000000 -0.000003 18.723900
			CHANNELS 3 Xrotation Yrotation Zrotation
			JOINT LeftLeg
			{
				OFFSET 0.000000 -0.000004 23.186501
				CHANNELS 3 Xrotation Yrotation Zrotation
				JOINT LeftLegRoll
				{
					OFFSET 0.000000 -0.000004 23.477501
					CHANNELS 3 Xrotation Yrotation Zrotation
					JOINT LeftFoot
					{
						OFFSET 0.000000 -0.000004 19.147003
						CHANNELS 3 Xrotation Yrotation Zrotation
						JOINT LeftToeBase
						{
							OFFSET 0.000000 -0.000002 16.185699
							CHANNELS 3 Xrotation Yrotation Zrotation
							End Site
							{
								OFFSET -0.030746 0.903520 7.838623
							}
						}
					}
				}
			}
		}
	}
}
MOTION
Frames: 7
Frame Time: 0.041667
53.846897 -22.500725 65.631889 25.046942 -1.421797 -0.654586 2.892451 -1.065711 0.054432 9.801043 -2.119260 0.172580 11.446623 -2.117086 0.197969 9.211944 4.706172 -6.926187 15.251280 -3.387052 -6.665690 -14.470890 -43.695746 -16.605532 -42.638231 -130.514055 -79.775558 0.000002 -0.000001 -0.000005 83.556942 -3.103918 -1.425749 0.000001 0.000003 -3.000001 -5.000221 -7.998780 0.000138 -9.412155 56.055489 10.926241 -49.917936 131.380519 77.928196 -0.000002 0.000001 0.000001 67.186829 1.735675 -1.381574 0.000007 -0.000007 3.001371 -5.000229 7.998811 -0.000167 -98.683345 -172.028819 1.441742 -179.999991 0.000005 -0.732000 100.963262 -1.657981 -4.642873 0.000001 -0.000002 1.607660 69.947339 7.488045 0.483025 25.456959 -7.355615 0.000000 -97.833232 171.510845 -2.197837 -0.000002 -0.000003 -0.857086 -80.335510 0.777349 3.758735 0.000000 -0.000000 -1.828350 71.626186 -6.643683 -2.629060 25.456928 7.355152 0.000002 
53.846691 -22.442127 65.542793 24.963143 -1.424634 -0.654877 2.892420 -1.066799 0.054261 9.801807 -2.121925 0.172421 11.447342 -2.119737 0.197839 9.169110 4.682903 -6.921339 15.278821 -3.385758 -6.660464 -14.481283 -43.716783 -16.619746 -42.698559 -130.494384 -79.875668 0.000001 0.000001 -0.000007 83.613448 -3.077497 -1.454538 -0.000000 0.000003 -3.000000 -5.000222 -7.998782 0.000135 -9.435752 56.009655 10.951561 -49.876094 131.441349 77.891190 -0.000002 0.000002 -0.000001 67.166701 1.738892 -1.383716 0.000012 -0.000010 3.001379 -5.000232 7.998811 -0.000163 -98.739011 -172.053298 1.428717 -179.999991 0.000005 -0.732997 100.879278 -1.619403 -4.621791 0.000001 -0.000002 1.611760 69.893736 7.481290 0.506738 25.456962 -7.355617 0.000000 -97.884486 171.503072 -2.214070 -0.000004 -0.000004 -0.858378 -80.411359 0.755786 3.751426 -0.000000 -0.000000 -1.829740 71.566203 -6.641640 -2.638097 25.456930 7.355152 0.000002 
53.870796 -22.362623 65.454391 24.878640 -1.427062 -0.654865 2.892446 -1.067908 0.053994 9.802536 -2.124592 0.172058 11.448064 -2.122398 0.197507 9.127884 4.658391 -6.916321 15.304528 -3.383231 -6.655204 -14.490825 -43.737232 -16.632810 -42.756274 -130.477910 -79.969740 0.000002 0.000000 -0.000003 83.667864 -3.052515 -1.482290 -0.000000 0.000001 -2.999999 -5.000221 -7.998780 0.000137 -9.458136 55.963391 10.975425 -49.834624 131.506919 77.846719 -0.000002 0.000000 0.000004 67.141183 1.745464 -1.386687 0.000004 -0.000008 3.001380 -5.000233 7.998813 -0.000163 -98.792532 -172.074718 1.418738 -179.999991 0.000005 -0.732997 100.798593 -1.583430 -4.602327 0.000001 -0.000002 1.615960 69.838452 7.476060 0.526433 25.456959 -7.355615 -0.000000 -97.934176 171.494903 -2.230393 -0.000003 -0.000004 -0.859819 -80.485351 0.734595 3.744091 0.000000 -0.000000 -1.831340 71.505503 -6.640495 -2.644627 25.456926 7.355150 0.000003 
53.865097 -22.313324 65.363083 24.793633 -1.429095 -0.654397 2.892484 -1.069016 0.053634 9.803143 -2.127258 0.171498 11.448688 -2.125059 0.196977 9.088386 4.632169 -6.911141 15.328398 -3.378774 -6.650066 -14.499587 -43.757286 -16.644864 -42.810844 -130.464441 -80.057084 -0.000001 -0.000002 -0.000003 83.720450 -3.029032 -1.508994 0.000002 0.000001 -2.999998 -5.000221 -7.998780 0.000137 -9.479025 55.916747 10.997468 -49.792564 131.578963 77.792180 -0.000005 0.000001 0.000001 67.109634 1.755847 -1.390562 0.000008 -0.000007 3.001391 -5.000229 7.998814 -0.000168 -98.843909 -172.092272 1.412726 -179.999991 0.000005 -0.733995 100.721405 -1.550223 -4.584527 0.000001 -0.000002 1.620309 69.781399 7.472693 0.541174 25.456957 -7.355616 0.000000 -97.982356 171.486406 -2.247301 -0.000005 -0.000004 -0.861443 -80.557403 0.713842 3.736730 0.000000 -0.000000 -1.833210 71.444209 -6.640353 -2.648254 25.456928 7.355152 0.000002 
53.875496 -22.231823 65.285889 24.708119 -1.430751 -0.653361 2.892545 -1.070145 0.053191 9.803592 -2.129896 0.170740 11.449199 -2.127711 0.196257 9.050716 4.603792 -6.905837 15.350218 -3.371719 -6.645188 -14.507667 -43.776817 -16.656051 -42.861199 -130.454550 -80.136431 0.000001 -0.000000 -0.000004 83.771539 -3.007075 -1.534746 -0.000000 0.000001 -2.999999 -5.000224 -7.998782 0.000137 -9.498094 55.869626 11.017301 -49.750415 131.657743 77.727341 -0.000004 0.000001 -0.000001 67.071078 1.770532 -1.395447 0.000009 -0.000005 3.001391 -5.000235 7.998814 -0.000165 -98.893203 -172.105017 1.410585 -179.999991 0.000005 -0.735005 100.648028 -1.520509 -4.569297 0.000001 -0.000002 1.624850 69.722271 7.471493 0.550344 25.456957 -7.355616 0.000001 -98.029054 171.477582 -2.266679 -0.000006 -0.000004 -0.863287 -80.627596 0.693572 3.729351 -0.000000 -0.000000 -1.835409 71.382287 -6.641399 -2.648614 25.456930 7.355151 0.000002 
53.882298 -22.180525 65.199287 24.622099 -1.432028 -0.651616 2.892590 -1.071284 0.052668 9.803797 -2.132506 0.169795 11.449325 -2.130328 0.195339 9.015008 4.572813 -6.900441 15.369801 -3.361393 -6.640744 -14.515197 -43.795832 -16.666498 -42.908567 -130.446586 -80.209398 0.000001 0.000000 -0.000004 83.821475 -2.986637 -1.559726 0.000001 0.000000 -2.999999 -5.000218 -7.998782 0.000136 -9.515011 55.821975 11.034527 -49.707945 131.744254 77.650488 -0.000001 0.000001 0.000003 67.025063 1.789968 -1.401445 0.000010 -0.000009 3.001396 -5.000236 7.998813 -0.000168 -98.940385 -172.112270 1.412975 -179.999991 0.000005 -0.737000 100.578750 -1.494454 -4.556638 0.000001 -0.000002 1.629610 69.660956 7.472851 0.552920 25.456960 -7.355617 0.000001 -98.074304 171.468443 -2.287152 -0.000005 -0.000003 -0.865384 -80.695755 0.673856 3.721978 0.000000 -0.000000 -1.838000 71.319688 -6.643808 -2.645141 25.456924 7.355151 0.000001 
53.879398 -22.096523 65.122192 24.535576 -1.432972 -0.649670 2.892747 -1.072372 0.052008 9.803981 -2.134979 0.168552 11.449539 -2.132806 0.194126 8.981025 4.539109 -6.894135 15.386806 -3.347511 -6.635985 -14.521103 -43.813949 -16.674805 -42.951515 -130.443226 -80.272857 -0.000002 0.000000 -0.000006 83.868965 -2.968020 -1.583489 -0.000001 0.000000 -3.000000 -5.000224 -7.998782 0.000134 -9.530757 55.773194 11.050289 -49.665038 131.839508 77.559742 -0.000003 0.000002 -0.000001 66.970736 1.814987 -1.408856 0.000008 -0.000009 3.001399 -5.000231 7.998811 -0.000169 -98.984857 -172.114142 1.422146 -179.999991 0.000004 -0.738994 100.514894 -1.472886 -4.546460 0.000001 -0.000002 1.634669 69.596055 7.477299 0.547599 25.456962 -7.355615 0.000001 -98.117867 171.458362 -2.308660 -0.000006 -0.000004 -0.867686 -80.761844 0.654287 3.714396 0.000000 -0.000000 -1.840930 71.256447 -6.647359 -2.638700 25.456926 7.355151 0.000002 
